<svg id="Layer_1" data-name="Layer 1" xmlns="http://www.w3.org/2000/svg" xmlns:xlink="http://www.w3.org/1999/xlink" viewBox="0 0 1920 1080"><defs><style>.cls-1{fill:none;}.cls-2{fill:#202330;}.cls-3{isolation:isolate;}.cls-4{fill:#760049;}.cls-5{fill:#4a002e;}.cls-6{fill:#4b002f;}.cls-7{fill:#5a0038;}.cls-8{fill:#64003e;}.cls-9{clip-path:url(#clip-path);}.cls-10{fill:#4d0030;}.cls-11{fill:#500032;}.cls-12{fill:#530034;}.cls-13{fill:#560035;}.cls-14{fill:#590037;}.cls-15{fill:#5c0039;}.cls-16{fill:#5f003b;}.cls-17{fill:#62003d;}.cls-18{fill:#65003f;}.cls-19{fill:#680040;}.cls-20{fill:#6b0042;}.cls-21{fill:#6e0044;}.cls-22{fill:#700046;}.cls-23{fill:#730048;}.cls-24{fill:#76004a;}.cls-25{fill:#79004b;}.cls-26{fill:#7c004d;}.cls-27{fill:#7f004f;}.cls-28{fill:#820051;}.cls-29{fill:#850053;}.cls-30{fill:#805;}.cls-31{fill:#00a2a2;}.cls-32{fill:#0dd;}.cls-33{fill:#008282;}.cls-34{fill:#00fafa;}</style><clipPath id="clip-path"><path class="cls-1" d="M1453.57,360.56l-24.44-33.49a29.55,29.55,0,0,0,8.35,7.68c24.92,15.57,74.12.88,109.91-32.81,30.89-29.08,41.68-62.81,28-81.51l24.43,33.49c13.65,18.7,2.86,52.43-28,81.51-35.78,33.69-85,48.38-109.9,32.81A29.55,29.55,0,0,1,1453.57,360.56Z"/></clipPath></defs><title>bgdesign</title><rect class="cls-2" width="1920" height="1080"/><g class="cls-3"><rect class="cls-4" x="1358.08" y="807.34" width="110" height="104.61" transform="translate(-105.89 205.03) rotate(-8)"/><polygon class="cls-5" points="1460.26 800.2 1458.11 784.9 1472.67 888.49 1474.82 903.79 1460.26 800.2"/><rect class="cls-6" x="1349.72" y="792.48" width="110" height="15.45" transform="translate(-97.7 203.29) rotate(-8)"/></g><g class="cls-3"><polygon class="cls-4" points="1630.77 552.13 1748.53 670.32 1622.87 784.18 1505.1 665.99 1630.77 552.13"/><polygon class="cls-5" points="1630.77 552.13 1628.62 536.83 1746.38 655.02 1748.53 670.32 1630.77 552.13"/><polygon class="cls-7" points="1505.1 665.99 1502.95 650.69 1628.62 536.83 1630.77 552.13 1505.1 665.99"/></g><g class="cls-3"><path class="cls-8" d="M1567.07,212.75c24.92,15.57,16.11,55.5-19.68,89.19s-85,48.38-109.91,32.81-16.1-55.5,19.68-89.18S1542.16,197.18,1567.07,212.75Z"/><g class="cls-3"><g class="cls-9"><g class="cls-3"><path class="cls-10" d="M1453.57,360.56l-24.44-33.49a29.55,29.55,0,0,0,8.35,7.68c7.15,4.47,16.29,6.45,26.54,6.2l24.44,33.49c-10.25.25-19.4-1.73-26.54-6.2a29.55,29.55,0,0,1-8.35-7.68"/><path class="cls-11" d="M1488.46,374.44,1464,341q3.42-.09,7-.49L1495.43,374c-2.37.27-4.7.43-7,.49"/><path class="cls-12" d="M1495.43,374,1471,340.46q2.76-.31,5.59-.82L1501,373.13c-1.89.34-3.76.61-5.59.82"/><path class="cls-13" d="M1501,373.13l-24.44-33.49c1.63-.29,3.28-.63,5-1L1506,372.12c-1.67.38-3.32.72-5,1"/><path class="cls-14" d="M1506,372.12l-24.44-33.49c1.52-.35,3.06-.74,4.6-1.17L1510.57,371c-1.55.43-3.08.82-4.6,1.17"/><path class="cls-15" d="M1510.57,371l-24.44-33.49c1.46-.4,2.92-.84,4.39-1.31L1515,369.64c-1.47.47-2.94.91-4.39,1.31"/><path class="cls-16" d="M1515,369.64l-24.44-33.49c1.4-.45,2.82-.93,4.23-1.43l24.44,33.48c-1.41.51-2.83,1-4.23,1.44"/><path class="cls-17" d="M1519.19,368.2l-24.44-33.48c1.36-.49,2.71-1,4.07-1.54l24.43,33.49c-1.35.54-2.71,1.05-4.06,1.53"/><path class="cls-18" d="M1523.25,366.67l-24.43-33.49c1.33-.53,2.66-1.09,4-1.67L1527.26,365c-1.34.58-2.67,1.14-4,1.67"/><path class="cls-19" d="M1527.26,365l-24.44-33.49c1.32-.57,2.64-1.17,4-1.79l24.43,33.49c-1.32.62-2.63,1.22-4,1.79"/><path class="cls-20" d="M1531.21,363.21l-24.43-33.49c1.3-.61,2.6-1.25,3.91-1.91l24.43,33.49c-1.3.66-2.6,1.3-3.91,1.91"/><path class="cls-21" d="M1535.12,361.3l-24.43-33.49c1.3-.67,2.61-1.36,3.91-2.07L1539,359.23c-1.3.71-2.61,1.4-3.92,2.07"/><path class="cls-22" d="M1539,359.23l-24.44-33.49q2-1.07,3.92-2.21L1543,357q-1.95,1.14-3.92,2.21"/><path class="cls-23" d="M1543,357l-24.44-33.49q2-1.17,4-2.41L1547,354.61q-2,1.25-4,2.41"/><path class="cls-24" d="M1547,354.61l-24.44-33.49q2-1.28,4-2.62L1551,352q-2,1.35-4,2.62"/><path class="cls-25" d="M1551,352l-24.44-33.49c1.38-.92,2.76-1.87,4.12-2.84l24.44,33.49c-1.36,1-2.74,1.92-4.12,2.84"/><path class="cls-26" d="M1555.12,349.15l-24.44-33.49c1.48-1.05,2.94-2.14,4.39-3.25l24.44,33.49c-1.45,1.11-2.92,2.19-4.39,3.25"/><path class="cls-27" d="M1559.51,345.9l-24.44-33.49q2.42-1.85,4.78-3.81l24.43,33.49q-2.35,2-4.77,3.81"/><path class="cls-28" d="M1564.28,342.09l-24.43-33.49c1.89-1.56,3.75-3.18,5.58-4.84l24.44,33.49c-1.83,1.66-3.7,3.28-5.59,4.84"/><path class="cls-29" d="M1569.87,337.25l-24.44-33.49c.66-.6,1.31-1.21,2-1.82q3.34-3.15,6.39-6.38l24.43,33.49q-3,3.22-6.39,6.38c-.64.61-1.3,1.22-2,1.82"/><path class="cls-30" d="M1578.21,329.05l-24.43-33.49a131.55,131.55,0,0,0,11.85-14.43l24.44,33.49a130.54,130.54,0,0,1-11.86,14.43"/><path class="cls-29" d="M1590.07,314.62l-24.44-33.49a109.08,109.08,0,0,0,6.14-9.71l24.43,33.49a106.69,106.69,0,0,1-6.13,9.71"/><path class="cls-28" d="M1596.2,304.91l-24.43-33.49c1.16-2.08,2.22-4.16,3.17-6.22l24.44,33.49c-1,2.06-2,4.14-3.18,6.22"/><path class="cls-27" d="M1599.38,298.69l-24.44-33.49c.78-1.68,1.48-3.34,2.12-5l24.43,33.49c-.63,1.65-1.34,3.31-2.11,5"/><path class="cls-26" d="M1601.49,293.7l-24.43-33.49c.55-1.44,1-2.86,1.49-4.28L1603,289.42c-.45,1.42-.94,2.84-1.5,4.28"/><path class="cls-25" d="M1603,289.42l-24.44-33.49c.41-1.28.76-2.55,1.08-3.82l24.44,33.49c-.32,1.27-.68,2.54-1.08,3.82"/><path class="cls-24" d="M1604.07,285.6l-24.44-33.49c.29-1.19.55-2.37.76-3.53l24.44,33.49c-.21,1.16-.47,2.34-.76,3.53"/><path class="cls-23" d="M1604.83,282.07l-24.44-33.49c.21-1.12.38-2.23.51-3.32l24.44,33.49c-.13,1.09-.3,2.2-.51,3.32"/><path class="cls-22" d="M1605.34,278.75l-24.44-33.49c.13-1,.22-2.08.27-3.1l24.44,33.49c-.06,1-.15,2.05-.27,3.1"/><path class="cls-21" d="M1605.61,275.65l-24.44-33.49c.06-1,.08-2,.07-3l24.43,33.48c0,1,0,2-.06,3"/><path class="cls-20" d="M1605.67,272.68l-24.43-33.48c0-1-.06-1.92-.14-2.85l24.44,33.49c.08.93.12,1.88.13,2.84"/><path class="cls-19" d="M1605.54,269.84l-24.44-33.49c-.08-.93-.19-1.84-.33-2.74l24.43,33.49c.15.9.26,1.81.34,2.74"/><path class="cls-18" d="M1605.2,267.1l-24.43-33.49q-.23-1.37-.54-2.67l24.44,33.49c.21.87.39,1.76.53,2.67"/><path class="cls-17" d="M1604.67,264.43l-24.44-33.49c-.21-.88-.46-1.75-.74-2.59l24.43,33.49c.29.84.53,1.71.75,2.59"/><path class="cls-16" d="M1603.92,261.84l-24.43-33.49c-.3-.88-.63-1.74-1-2.58l24.44,33.49q.55,1.26,1,2.58"/><path class="cls-15" d="M1602.93,259.26l-24.44-33.49c-.38-.87-.81-1.72-1.27-2.55l24.44,33.49c.46.83.89,1.68,1.27,2.55"/><path class="cls-14" d="M1601.66,256.71l-24.44-33.49a27.74,27.74,0,0,0-1.61-2.53l24.44,33.49a27.74,27.74,0,0,1,1.61,2.53"/><path class="cls-13" d="M1600.05,254.18l-24.44-33.49-.18-.26,24.43,33.49.19.26"/></g></g></g></g><g class="cls-3"><polygon class="cls-31" points="1727.34 423.67 1703.72 281.67 1816.26 349.29 1727.34 423.67"/><polygon class="cls-32" points="1703.72 281.67 1732.87 270.02 1845.41 337.64 1816.26 349.29 1703.72 281.67"/><polygon class="cls-33" points="1816.26 349.29 1845.41 337.64 1756.48 412.02 1727.34 423.67 1816.26 349.29"/></g><g class="cls-3"><polygon class="cls-31" points="1393.38 602.94 1291.18 585.03 1339.99 489.16 1393.38 602.94"/><polygon class="cls-34" points="1339.99 489.16 1369.14 477.51 1422.53 591.29 1393.38 602.94 1339.99 489.16"/></g></svg>